<?xml version="1.0" encoding="UTF-8" standalone="no"?>
<!-- Created with Inkscape (http://www.inkscape.org/) -->

<svg
   xmlns:dc="http://purl.org/dc/elements/1.1/"
   xmlns:cc="http://creativecommons.org/ns#"
   xmlns:rdf="http://www.w3.org/1999/02/22-rdf-syntax-ns#"
   xmlns:svg="http://www.w3.org/2000/svg"
   xmlns="http://www.w3.org/2000/svg"
   xmlns:xlink="http://www.w3.org/1999/xlink"
   xmlns:sodipodi="http://sodipodi.sourceforge.net/DTD/sodipodi-0.dtd"
   xmlns:inkscape="http://www.inkscape.org/namespaces/inkscape"
   width="8.5in"
   height="11in"
   viewBox="0 0 215.9 279.4"
   version="1.1"
   id="svg405"
   sodipodi:docname="civcitizen.svg"
   inkscape:version="0.92.4 (unknown)">
  <defs
     id="defs399" />
  <sodipodi:namedview
     id="base"
     pagecolor="#ffffff"
     bordercolor="#666666"
     borderopacity="1.0"
     inkscape:pageopacity="0.0"
     inkscape:pageshadow="2"
     inkscape:zoom="1"
     inkscape:cx="-726.76635"
     inkscape:cy="703.87601"
     inkscape:document-units="mm"
     inkscape:current-layer="layer1"
     showgrid="false"
     units="in"
     inkscape:window-width="1855"
     inkscape:window-height="1056"
     inkscape:window-x="65"
     inkscape:window-y="24"
     inkscape:window-maximized="1" />
  <metadata
     id="metadata402">
    <rdf:RDF>
      <cc:Work
         rdf:about="">
        <dc:format>image/svg+xml</dc:format>
        <dc:type
           rdf:resource="http://purl.org/dc/dcmitype/StillImage" />
        <dc:title></dc:title>
      </cc:Work>
    </rdf:RDF>
  </metadata>
  <g
     inkscape:label="Layer 1"
     inkscape:groupmode="layer"
     id="layer1"
     transform="translate(0,-17.6)">
    <rect
       id="rect428"
       width="143.25554"
       height="152.70493"
       x="-161.86508"
       y="42.942215"
       style="fill:#ffe2e2;fill-opacity:1;stroke:#000000;stroke-width:0.70042467;stroke-miterlimit:4;stroke-dasharray:none;stroke-opacity:1" />
    <text
       xml:space="preserve"
       style="font-style:normal;font-weight:normal;font-size:10.58333302px;line-height:125%;font-family:sans-serif;letter-spacing:0px;word-spacing:0px;fill:#000000;fill-opacity:1;stroke:none;stroke-width:0.26458332px;stroke-linecap:butt;stroke-linejoin:miter;stroke-opacity:1"
       x="-135.31548"
       y="84.577377"
       id="text1243"><tspan
         sodipodi:role="line"
         id="tspan1241"
         x="-135.31548"
         y="93.941147"
         style="stroke-width:0.26458332px" /></text>
    <g
       id="hides"
       transform="matrix(0.01031875,0,0,0.01031875,-183.58501,188.51306)"
       style="opacity:0.95999995"
       inkscape:label="#g5219">
      <path
         id="path5202"
         d="M 0,0 H 512 V 512 H 0 Z"
         inkscape:connector-curvature="0"
         style="fill:#ffffff;fill-opacity:1" />
      <g
         id="g5206"
         class="">
        <path
           id="path5204"
           d="m 76.28,21.688 c -26.378,9.306 -43.39,25.92 -51.374,49.53 33.78,22.83 81.775,69.988 100.875,114.813 7.62,17.88 13.92,38.086 17.97,59.126 5.308,-2.97 33.706,40.776 25.5,33.156 -1.905,-1.766 -22.602,-12.653 -22.125,-5.53 1.39,20.77 2.154,36.28 -1.22,56.28 -8.794,52.14 -56.968,122.188 -56.968,122.188 22.368,21.103 35.882,27.827 74.876,35.78 l 77,-100.405 c 28.983,22.87 5.424,64 28.218,62.47 21.462,-1.442 2.15,-41.235 18.44,-61.845 16.95,22.598 36.356,41.26 55.717,57.125 2.09,2.124 1.477,-61.477 5.75,-47.594 4.162,13.52 13.724,52.06 18.47,65.25 12.987,13.292 22.495,24.418 38.437,27.595 36.918,7.356 33.552,-2.188 69.28,-22.094 0,0 -62.02,-74.034 -76.468,-118.874 -14.824,-46.01 -21.362,-98.512 -7.5,-144.812 15.787,-52.74 97.78,-133.094 97.78,-133.094 -4.763,-5.607 -8.447,-9.992 -11.686,-13.688 -3.5,-3.993 -35.27,15.448 -38.594,12.438 -3.296,-2.988 21.852,-28.457 17.094,-31.75 -5.434,-3.76 -12.353,-8.134 -21.97,-14.063 -32.09,39.05 -59.294,63.115 -112.624,96.376 -4.038,-23.52 -1.745,-37.2 -19.344,-53.938 -17.6,-16.74 -55.628,-29.337 -89.187,-0.594 -14.822,12.696 -11.758,33.168 -19.47,51.532 C 168.367,74.256 102.847,29.622 76.283,21.692 Z M 273.157,141.03 c 3.632,9.382 1.912,19.278 -1.5,28.626 -3.412,9.348 -8.772,18.586 -14.625,27.375 -3.624,5.446 -7.432,10.64 -11.155,15.595 10.79,-3.762 22.226,-7.236 33.5,-2.594 l 10.688,4.407 -6.875,9.282 c -3.87,5.213 -7.125,9.803 -9.97,14 3.6,-1.794 7.416,-3.395 11.532,-4.564 3.455,-0.98 9.48,1.043 11.625,4 2.144,2.957 2.316,5.218 2.53,7.28 0.432,4.128 0.016,8.136 -0.53,12.69 -1.093,9.104 -3.05,19.868 -3.5,26.062 l -17.97,-1.313 c 0.597,-8.223 2.62,-18.754 3.595,-26.875 0.026,-0.218 0.007,-0.254 0.03,-0.47 -8.836,4.995 -18.517,12.7 -30.56,17.75 L 224.437,283 238.78,259.312 c 5.164,-8.52 10.192,-17.848 19.22,-31.218 -3.025,0.674 -6.163,1.506 -9.344,2.625 -5.286,1.858 -10.545,4.006 -15.094,5.843 -4.548,1.836 -7.876,3.33 -11.78,4.156 l -21.032,4.468 11.594,-18.125 c 5.86,-9.155 18.906,-23.762 29.72,-40 5.405,-8.12 10.077,-16.445 12.686,-23.594 2.61,-7.15 2.883,-12.69 1.625,-15.94 l 16.78,-6.5 z"
           inkscape:connector-curvature="0"
           style="fill:#405842;fill-opacity:1" />
      </g>
    </g>
    <g
       id="investments"
       transform="matrix(0.01031875,0,0,0.01031875,-87.90602,188.51306)"
       inkscape:label="#g5238">
      <path
         id="path5221"
         d="M 0,0 H 512 V 512 H 0 Z"
         inkscape:connector-curvature="0"
         style="fill:#ffffff;fill-opacity:1" />
      <g
         id="g5225"
         class="">
        <path
           id="path5223"
           d="m 280.693,64.92 c -5.164,-0.024 -11.614,1.387 -18.687,6.205 -55.605,39.039 -112.172,76.494 -169.584,112.826 -10.2,6.621 -9.75,16.6 1.017,22.27 l 128.75,67.761 c 5.384,2.835 22.414,2.056 32.614,-4.564 L 424.637,159.186 c 10.199,-6.622 9.75,-16.598 -1.014,-22.268 -44.669,-23.51 -85.78,-45.116 -130.578,-68.865 0,0 -4.803,-3.099 -12.352,-3.133 z m 6.416,27.547 -13.504,69.37 113.612,-14.685 -2.84,15.22 -113.773,14.878 -13.672,70.232 -25.643,3.53 13.838,-70.43 -117.033,15.305 3.205,-15.655 116.865,-15.105 13.668,-69.565 z m 41.246,146.324 -65.74,42.674 c -14.563,9.45 -37.135,10.479 -52.5,2.389 L 175.29,265.53 88.054,306.905 c -10.983,5.203 -10.69,12.999 0.66,17.354 l 121.242,46.617 v 0.006 c 11.35,4.368 29.494,3.66 40.477,-1.535 l 166.992,-79.196 c 10.985,-5.194 10.68,-12.996 -0.664,-17.353 L 328.356,238.79 Z m 93.614,65.094 -165.393,78.44 c -14.544,6.88 -36.751,7.734 -51.775,1.958 L 83.81,337.76 c -6.4,4.962 -4.722,11.122 4.902,14.812 l 121.242,46.625 h 0.002 c 11.349,4.363 29.494,3.663 40.477,-1.533 l 166.992,-79.193 c 8.922,-4.218 10.398,-10.162 4.543,-14.586 z m 0,28.318 -165.393,78.44 c -14.544,6.874 -36.751,7.729 -51.775,1.959 L 83.81,366.078 c -6.4,4.963 -4.722,11.125 4.902,14.815 l 121.242,46.625 h 0.002 c 11.349,4.362 29.494,3.66 40.477,-1.534 l 166.992,-79.2 c 8.922,-4.22 10.398,-10.165 4.543,-14.58 z m -0.002,28.32 -165.393,78.434 c -14.544,6.88 -36.75,7.735 -51.773,1.959 L 83.81,394.4 c -6.4,4.96 -4.721,11.119 4.902,14.809 l 121.242,46.623 v -0.002 c 11.35,4.37 29.494,3.663 40.477,-1.533 l 166.994,-79.193 c 8.922,-4.22 10.396,-10.164 4.54,-14.58 z m -3.871,30.153 -161.522,76.6 c -14.544,6.88 -36.75,7.737 -51.773,1.96 L 87.924,424.293 c -10.853,5.201 -10.52,12.949 0.789,17.289 l 121.24,46.62 h 0.002 c 11.35,4.366 29.492,3.66 40.475,-1.534 l 166.996,-79.193 c 10.534,-4.98 10.684,-12.363 0.67,-16.8 z"
           inkscape:connector-curvature="0"
           style="fill:#000000;fill-opacity:1" />
      </g>
    </g>
    <g
       id="bricks"
       transform="matrix(0.01031875,0,0,0.01031875,-75.946148,188.51306)"
       inkscape:label="#g5257">
      <path
         id="path5240"
         d="M 0,0 H 512 V 512 H 0 Z"
         inkscape:connector-curvature="0"
         style="fill:#ffffff;fill-opacity:1" />
      <g
         id="g5244"
         class="">
        <path
           id="path5242"
           d="m 329.3,99.64 -39.7,10.46 c -30.2,26.1 -62.7,50.9 -96.7,75.1 l -6.7,21 -34.1,7.3 C 129.5,228.8 106.5,243.9 83.28,259 L 203.6,277.4 417.5,110.3 c -27.7,-3.8 -56.9,-7.5 -88.2,-10.66 z m 103.4,21.56 -61.4,47.9 -43,53.1 -45,15.7 -65,50.7 20.8,115.1 c 65.6,-54.6 127.6,-109.4 187,-163.1 l -5.6,-31.2 42.1,-1.9 c 8.3,-7.4 16.5,-14.9 24.6,-22.3 z M 61.58,277.6 c -21.15,39.9 -32.01,70.6 -36.83,95.8 9.21,1.1 18.3,2.2 27.28,3.5 l 16.76,-30.6 5.52,34 c 53.29,8.6 103.09,20.5 152.19,32.1 l -26.9,-117.6 -66,-10.1 z"
           inkscape:connector-curvature="0"
           style="fill:#e04710;fill-opacity:1" />
      </g>
    </g>
    <g
       id="rifles"
       transform="matrix(0.01031875,0,0,0.01031875,-123.78564,188.51306)"
       inkscape:label="#g5276">
      <path
         id="path5259"
         d="M 0,0 H 512 V 512 H 0 Z"
         inkscape:connector-curvature="0"
         style="fill:#ffffff;fill-opacity:1" />
      <g
         id="g5263"
         class="">
        <path
           id="path5261"
           d="m 465.659,42.63 -16.16,11.83 11.82,15.69 -0.272,0.181 6.32,8.559 22.551,-17 -8,-10.68 -6.26,4.71 -10,-13.29 z m -29.09,21.48 -167.461,119.75 c 0,0.54 -0.06,1.03 -0.06,1.54 l -2.16,22.78 a 16,16 0 0 1 -6.52,11.46 l -41.91,30.5 a 16,16 0 0 1 -22.35,-3.52 l -4.95,-6.8 -29.79,21.48 c -1.67,1.22 -2.011,3.74 -0.811,6 l 2.09,3.951 a 4.9,4.9 0 0 1 -0.158,5.37 l -48,58.71 a 1.77,1.77 0 0 1 -0.282,0.27 l -90.699,70.42 c -1.84,1.43 -1.91,4.46 -0.15,6.76 l 40.82,54.179 a 5.69,5.69 0 0 0 4.41,2.41 h 0.18 a 3.47,3.47 0 0 0 2.84,-1.59 l 84.43,-111.3 a 4.2,4.2 0 0 0 1.33,-4.37 c 0,0 -3.04,-16.07 -2.32,-17.07 0,0 28.7,-38.39 28.95,-38.58 L 454.788,88.7 436.568,64.11 Z m -183.5,119.82 -54.14,39.39 10.118,13.91 41.91,-30.5 z m 20.138,64.25 -38.629,29.6 7.49,15.37 a 5.14,5.14 0 0 0 4.73,2.87 h 0.25 a 6,6 0 0 0 4.57,-2.45 l 22.77,-30.59 a 5.63,5.63 0 0 0 1,-4.51 l -2.18,-10.29 z m -59.44,45.6 -5.929,4.59 a 12.81,12.81 0 0 1 -16.48,18.16 l -2.26,3 -2.26,3 a 20.27,20.27 0 0 0 30.08,-14.81 20.1,20.1 0 0 0 -3.15,-13.94 z"
           inkscape:connector-curvature="0"
           style="fill:#ff0000;fill-opacity:1" />
      </g>
    </g>
    <g
       id="cloth"
       transform="matrix(0.01031875,0,0,0.01031875,-99.86589,188.51306)"
       inkscape:label="#g5295">
      <path
         id="path5278"
         d="M 0,0 H 512 V 512 H 0 Z"
         inkscape:connector-curvature="0"
         style="fill:#ffffff;fill-opacity:1" />
      <g
         id="g5282"
         class="">
        <path
           id="path5280"
           d="m 165.446,34.793 c -23.17,0.023 -45.634,12.97 -54.612,36.323 l -83.67,326.167 c -12.673,94.537 81.04,88.742 137.957,65.396 81.422,-33.396 181.723,-29.213 263.244,-8.26 l 6.45,-17.218 c -7.38,-2.638 -15.334,-5.988 -22.252,-8.039 0.473,-4.364 0.955,-8.72 1.437,-13.074 l 23.038,4.118 3.234,-18.1 c -8.074,-1.441 -16.147,-2.885 -24.221,-4.328 0.615,-5.403 1.238,-10.799 1.87,-16.189 l 22.134,3.278 2.693,-18.186 c -7.548,-1.12 -15.098,-2.238 -22.647,-3.355 0.456,-3.765 0.91,-7.53 1.375,-11.29 7.615,1.092 15.231,2.183 22.847,3.273 l 2.607,-18.2 -23.164,-3.316 c 0.46,-3.593 1.29,-9.988 1.76,-13.577 l 22.781,2.55 2.045,-17.57 c -7.467,-0.834 -14.935,-1.671 -22.402,-2.508 0.783,-5.767 1.917,-11.182 2.728,-16.943 7.67,1.12 15.341,2.244 23.012,3.368 L 456,271.974 c -7.683,-1.127 -15.366,-2.25 -23.05,-3.374 0.792,-5.415 1.252,-10.129 2.071,-15.542 7.074,1.264 14.149,2.528 21.223,3.79 l 3.232,-18.1 -21.654,-3.866 c 0.736,-4.676 1.473,-9.35 2.23,-14.026 6.978,1.673 13.955,3.347 20.932,5.022 L 465.276,208 c -7.401,-1.778 -14.803,-3.554 -22.204,-5.33 a 2809.25,2809.25 0 0 1 2.132,-12.477 c 6.98,1.583 13.961,3.165 20.942,4.746 l 4.064,-17.93 c -7.271,-1.65 -14.543,-3.298 -21.815,-4.946 0.769,-4.267 1.55,-8.535 2.342,-12.805 l 20.742,5.151 4.431,-17.843 -21.751,-5.405 c 0.741,-3.847 1.494,-7.696 2.254,-11.548 l 20.28,5.014 4.413,-17.849 -21.057,-5.207 a 2444.47,2444.47 0 0 1 2.571,-12.374 c 8.386,2.41 13.13,2.364 21.41,4.99 L 486,88.456 C 402.192,61.68 306.75,55.236 241.808,82.003 c -24.337,114.036 -37.305,221.4 -68.032,338.64 -3.407,13 -14.47,21.89 -27.342,28.064 -27,11.608 -64.033,13.778 -84.63,-4.91 C 50.833,433.457 45.63,416.761 49.337,396.218 51.64,383.456 60.22,374.232 70.171,369.84 c 19.749,-7.074 43.492,-4.25 58.893,7.95 12.463,9.302 12.318,38.283 -3.882,31.82 -9.639,-6.17 -1.964,-11.851 -8.615,-17.378 -11.6,-7.428 -26.42,-10.872 -38.972,-5.57 -5.564,2.455 -8.887,5.737 -10.166,12.822 -2.94,16.29 0.685,24.996 6.985,30.933 18.333,13.49 45.279,10.495 64.068,1.712 10.045,-4.82 16.277,-11.436 17.511,-16.147 C 186.531,299.464 199.436,191.859 224.286,76.018 212.49,47.674 188.616,34.771 165.446,34.793 Z"
           inkscape:connector-curvature="0"
           style="fill:#bd10e0;fill-opacity:1" />
      </g>
    </g>
    <g
       id="swords"
       transform="matrix(0.01031875,0,0,0.01031875,-135.74552,188.51306)"
       inkscape:label="#g5314">
      <path
         id="path5297"
         d="M 0,0 H 512 V 512 H 0 Z"
         inkscape:connector-curvature="0"
         style="fill:#ffffff;fill-opacity:1" />
      <g
         id="g5301"
         class="">
        <path
           id="path5299"
           d="m 228.04,25 c -6.221,6.962 -12.451,16.697 -15.5,25.846 -2.886,8.656 -2.848,15.342 0.044,20.154 h 86.832 c 2.892,-4.812 2.93,-11.498 0.045,-20.154 -3.05,-9.15 -9.28,-18.884 -15.5,-25.846 z m -15.724,64 c -4.559,5.939 -7.316,14.298 -7.316,23 0,8.702 2.757,17.061 7.316,23 h 87.368 c 4.559,-5.939 7.316,-14.298 7.316,-23 0,-8.702 -2.757,-17.061 -7.316,-23 z m 0,64 c -4.559,5.939 -7.316,14.298 -7.316,23 0,8.702 2.757,17.061 7.316,23 h 87.368 c 4.559,-5.939 7.316,-14.298 7.316,-23 0,-8.702 -2.757,-17.061 -7.316,-23 z m 0.418,64 c -1.57,3.04 -3.605,8.253 -4.908,14.766 C 205.985,240.974 205,252.5 205,264 c 0,4.617 0.165,9.23 0.475,13.705 23.303,12.918 41.918,25.346 50.525,31.299 8.55,-5.914 27.179,-18.357 50.525,-31.299 0.31,-4.474 0.475,-9.088 0.475,-13.705 0,-11.5 -0.985,-23.026 -2.826,-32.234 -1.303,-6.513 -3.339,-11.726 -4.908,-14.766 z M 87,256.186 c -8.69,0.146 -17.198,1.7 -24.654,5.695 -16.372,9.026 -29.472,29.862 -35.09,53.101 -5.618,23.24 -3.576,48.243 6.387,64.266 8.633,13.885 27.756,23.805 48.968,27.729 21.213,3.923 44.058,1.625 57.364,-5.028 C 152.62,395.626 155,385.58 155,375 c 0,-10.03 -2.98,-18.574 -3.299,-19.463 -7.82,-15.598 -15.576,-29.109 -23.79,-36.726 -8.303,-7.699 -15.693,-10.484 -29.208,-6.227 -8.45,3.679 -21.41,11.758 -20.18,22.11 C 82.8,348.981 97.358,358.741 112,359 v 18 c -10.42,0 -21.517,-3.805 -31.205,-10.4 -9.688,-6.596 -18.194,-16.447 -20.08,-29.293 3.61,-41.77 53.194,-54.473 79.433,-31.696 11.026,10.224 18.885,24.484 26.543,39.672 L 256,385.437 345.309,345.283 c 7.658,-15.188 15.517,-29.448 26.543,-39.672 26.239,-22.777 75.823,-10.074 79.433,31.696 -1.886,12.846 -10.392,22.697 -20.08,29.293 C 421.517,373.195 410.42,377 400,377 v -18 c 14.642,-0.258 29.2,-10.018 33.477,-24.307 1.23,-10.35 -11.73,-18.43 -20.18,-22.109 -13.515,-4.257 -20.905,-1.472 -29.207,6.227 -8.215,7.617 -15.972,21.128 -23.791,36.726 -0.32,0.89 -3.299,9.433 -3.299,19.463 0,10.58 2.38,20.626 15.025,26.95 13.306,6.652 36.151,8.95 57.364,5.027 21.212,-3.924 40.335,-13.844 48.968,-27.729 9.963,-16.023 12.005,-41.026 6.387,-64.266 -5.618,-23.24 -18.718,-44.075 -35.09,-53.101 -7.456,-3.995 -15.964,-5.55 -24.654,-5.695 -8.69,-0.146 -17.561,1.116 -25.746,2.755 -20.272,4.367 -42.582,13.385 -63.113,23.532 -34.63,17.113 -62.762,36.325 -80.141,42.209 -17.38,-5.884 -45.511,-25.096 -80.14,-42.21 -20.532,-10.146 -42.842,-19.164 -63.114,-23.53 C 104.561,257.302 95.69,256.04 87,256.186 Z M 201,382.563 V 494 h 28 v -64.357 l 14.523,-25.819 z m 110,0 -42.523,21.261 L 283,429.643 V 494 h 28 z m -55,35.794 -9,16 V 494 h 18 v -59.643 z"
           inkscape:connector-curvature="0"
           style="fill:#ff0000;fill-opacity:1" />
      </g>
    </g>
    <g
       id="food"
       transform="matrix(0.01031875,0,0,0.01031875,-63.986272,188.51306)"
       inkscape:label="#g5333">
      <path
         id="path5316"
         d="M 0,0 H 512 V 512 H 0 Z"
         inkscape:connector-curvature="0"
         style="fill:#ffffff;fill-opacity:1" />
      <g
         id="g5320"
         class="">
        <path
           id="path5318"
           d="m 294.818,43.27 c -0.957,0.003 -1.917,0.014 -2.88,0.035 -46.15,0.993 -96.56,23.687 -128.614,54.82 -41.965,40.758 -91.926,108.163 -118.896,173.047 -13.486,32.442 -21.17,64.22 -19.93,91.305 1.24,27.085 10.723,49.188 32.54,65.546 15.71,11.78 28.638,10.986 44.814,2.72 16.175,-8.268 34.067,-25.324 52.433,-45.405 36.732,-40.162 74.766,-92.452 121.008,-107.932 61.794,-20.685 98.278,-34.43 120.926,-46.785 22.646,-12.353 31.392,-22.466 40.74,-39.08 7.302,-12.974 8.365,-26.067 5.03,-39.882 -3.334,-13.814 -11.388,-28.167 -22.45,-41.62 -22.127,-26.903 -56.253,-49.946 -83.706,-60.003 -12.75,-4.67 -26.652,-6.79 -41.016,-6.764 z m 3.418,24.26 c 21.21,-0.103 42.145,4.338 58.493,16.677 47.554,35.895 86.454,58.96 54.377,111.88 -32.076,52.923 -177.004,58.17 -217.56,20.06 -1.663,-10.596 -12.613,-91.45 10.176,-121.653 12.52,-10.007 54.02,-26.77 94.513,-26.965 z m -119.87,43.66 c -1.058,1.99 -7.086,83.113 -10.403,98.937 -19.397,9.728 -71.78,21.074 -73.92,6.977 3.618,-16.654 37.1,-71.993 84.324,-105.915 z m 278.095,26.248 c 1.196,3.294 2.213,6.627 3.026,9.996 4.2,17.4 2.736,35.916 -6.84,52.933 -10.34,18.374 -23.007,32.528 -47.808,46.057 -24.8,13.53 -61.8,27.285 -123.832,48.05 -36.878,12.346 -75.83,61.892 -113.438,103.012 -18.804,20.56 -37.417,39.008 -57.525,49.285 -5.895,3.014 -12.05,5.204 -18.322,6.418 3.03,1.73 6.143,3.338 9.165,4.728 8.116,3.734 16.547,5.668 17.197,5.686 14.037,-0.65 29.08,-8.326 44.816,-21.024 15.82,-12.764 32.063,-30.284 48.493,-48.676 32.86,-36.784 65.744,-77.523 104.444,-90.478 61.817,-20.694 98.67,-34.278 121.465,-46.543 22.794,-12.264 31.4,-22.235 40.044,-39.028 9.733,-18.912 10.244,-32.256 4.506,-46.28 -4.33,-10.583 -12.968,-21.73 -25.39,-34.135 z m -314.546,95.466 c 33.96,-0.19 69.09,16.75 104.688,36.092 -71.258,37.318 -141.89,180.326 -187.133,133.99 -18.206,-20.105 -19.433,-119.77 30.147,-153.564 17.043,-11.616 34.51,-16.418 52.297,-16.518 z m -36.463,73.213 c -5.436,0.103 -10.92,1.77 -14.74,4.787 -12.34,9.753 -21.72,34.145 -11.206,45.844 10.057,11.19 35.46,5.816 44.728,-6.012 8.262,-10.544 5.69,-31.088 -4.32,-40.02 -3.632,-3.24 -9.023,-4.7 -14.46,-4.6 z"
           inkscape:connector-curvature="0"
           style="fill:#417505;fill-opacity:1" />
      </g>
    </g>
    <g
       id="stone"
       transform="matrix(0.01031875,0,0,0.01031875,-111.82576,188.51306)"
       inkscape:label="#g5352">
      <path
         id="path5335"
         d="M 0,0 H 512 V 512 H 0 Z"
         inkscape:connector-curvature="0"
         style="fill:#ffffff;fill-opacity:1" />
      <g
         id="g5339"
         class="">
        <path
           id="path5337"
           d="m 209.875,44.156 -182,106.47 119.625,54.31 148.344,11.72 41.97,-24.312 17.342,11.562 L 309,230.656 V 379.53 l 53.563,-14.624 -64.625,51.97 -110.875,-59.626 -2.157,-1.53 -71.28,6.56 75.936,-31.967 100.75,52.125 v -147.5 l -145.906,-11.5 -1.625,-0.125 -1.5,-0.688 -121.093,-55 V 391.47 L 44,423.186 l 82,20.97 21.875,-21.282 11.156,29.72 131.282,33.592 V 434 l 4.25,2.28 5.47,2.94 4.812,-3.908 4.155,-3.342 v 52.155 L 491.375,377.78 V 281.375 L 466.78,269.47 491.375,230.72 V 125 l -90.25,52.28 -1.094,34.095 -88,-58.688 84.97,5.375 L 476.5,112 291.562,64.937 l 1.625,0.563 -64.406,5.78 5.345,-20.936 -24.25,-6.188 z"
           inkscape:connector-curvature="0"
           style="fill:#727272;fill-opacity:1" />
      </g>
    </g>
    <g
       id="spears"
       transform="matrix(0.01031875,0,0,0.01031875,-147.70538,188.51306)"
       inkscape:label="#g5371">
      <path
         id="path5354"
         d="M 0,0 H 512 V 512 H 0 Z"
         inkscape:connector-curvature="0"
         style="fill:#ffffff;fill-opacity:1" />
      <g
         id="g5358"
         class="">
        <path
           id="path5356"
           d="m 20.563,20.844 v 44.593 l 73.124,72.907 c 4.878,-7.945 10.962,-15.65 18.126,-22.813 7.152,-7.15 14.825,-13.194 22.75,-18.06 L 58.156,20.843 H 20.563 Z m 159.812,81.062 c -0.566,-0.005 -1.138,0.014 -1.72,0.03 -3.097,0.097 -6.42,0.522 -9.905,1.283 -13.942,3.043 -29.973,11.753 -43.75,25.53 -13.777,13.777 -22.487,29.808 -25.53,43.75 -2.905,13.296 -0.81,23.935 5.28,30.78 5.4,-20.354 17.587,-41.18 35.594,-59.186 18.024,-18.024 38.876,-30.203 59.25,-35.594 -4.718,-4.223 -11.25,-6.526 -19.22,-6.594 z m 40.47,22.156 c -3.977,0.096 -8.19,0.624 -12.595,1.563 -17.62,3.755 -37.603,14.572 -54.72,31.688 -17.113,17.115 -27.93,37.067 -31.685,54.687 -3.755,17.62 -0.633,32.086 8.47,41.188 0.905,0.906 1.894,1.744 2.905,2.53 4.635,-31.49 18.506,-59.084 39.436,-80 20.69,-20.674 47.894,-34.465 78.938,-39.25 -0.678,-0.837 -1.393,-1.642 -2.156,-2.405 -6.827,-6.827 -16.668,-10.288 -28.594,-10 z m 55.343,28.657 c -36.56,0.167 -68.017,13.906 -90.344,36.218 -2.24,2.24 -4.375,4.58 -6.438,7 22.43,11.654 37.317,26.57 46.313,43.062 10.575,19.392 12.977,40.393 12.155,60.03 l -18.688,-0.78 c 0.736,-17.565 -1.448,-34.863 -9.875,-50.313 -7.466,-13.688 -19.874,-26.317 -41.03,-36.687 -18.155,29.68 -24.497,68.66 -12.657,111.844 36.472,3.146 72.888,24.29 86.375,66.25 45.025,-6.375 119.336,26.557 127.22,64.25 39.96,18.477 84.588,33.368 125.717,45.094 -11.33,-35.873 -24.38,-81.097 -40.718,-116.97 -34.53,-21.506 -49.702,-62.82 -46.626,-106.343 -40.336,-30.105 -70.18,-69.518 -74.78,-112.625 -19.782,-6.95 -38.806,-10.113 -56.627,-10.03 z m -9.532,45.5 c 10.293,52.54 58.667,86.17 100.625,93.718 l -3.31,18.375 c -11.09,-1.996 -22.478,-5.503 -33.595,-10.438 -6.93,19.615 1.34,41.252 19.75,60 19.638,19.998 50.412,34.906 81.094,35.97 l -0.658,18.686 c -36.154,-1.25 -70.657,-18.014 -93.78,-41.56 -0.98,-1 -1.936,-2.004 -2.876,-3.033 -15.47,-12.362 -27.615,-16.12 -38.47,-15.5 -10.918,0.624 -21.598,6.012 -33.03,15.063 l -11.594,-14.656 c 13.043,-10.327 27.295,-18.134 43.563,-19.063 6.378,-0.363 12.9,0.373 19.563,2.283 -5.637,-15.188 -6.428,-31.344 -0.25,-46.813 -31.03,-18.508 -57.392,-48.844 -65.344,-89.438 l 18.312,-3.593 z"
           inkscape:connector-curvature="0"
           style="fill:#ff0000;fill-opacity:1" />
      </g>
    </g>
    <g
       id="gold"
       transform="matrix(0.01031875,0,0,0.01031875,-159.66526,188.51306)"
       inkscape:label="#g5390">
      <path
         id="path5373"
         d="M 0,0 H 512 V 512 H 0 Z"
         inkscape:connector-curvature="0"
         style="fill:#ffffff;fill-opacity:1" />
      <g
         id="g5377"
         class="">
        <path
           id="path5375"
           d="m 363.783,23.545 c -9.782,0.057 -16.583,3.047 -20.744,10.22 -17.51,30.18 -38.432,61.645 -48.552,97.245 2.836,0.83 5.635,1.787 8.373,2.853 7.353,2.863 14.38,6.482 20.542,10.858 27.534,-25.542 58.165,-45.21 87.45,-65.462 11.356,-7.854 12.273,-13.584 10.183,-20.83 -2.09,-7.246 -9.868,-16.365 -20.525,-23.176 -10.658,-6.81 -23.87,-11.33 -34.73,-11.68 -0.68,-0.022 -1.345,-0.03 -1.997,-0.027 z m -68.998,0.746 c -10.02,-0.182 -17.792,6.393 -23.924,20.24 -8.94,20.194 -10.212,53.436 -1.446,83.185 0.156,-0.008 0.31,-0.023 0.467,-0.03 1.99,-0.087 3.99,-0.072 6,0.03 9.436,-34.822 27.966,-64.72 44.013,-91.528 -10.31,-8.496 -18.874,-11.782 -25.108,-11.896 z M 197.5,82.5 187,97.97 c 14.82,10.04 29.056,19.725 39.813,31.374 3.916,4.24 7.37,8.722 10.31,13.607 3.77,-4.73 8.51,-8.378 13.69,-10.792 0.407,-0.188 0.82,-0.355 1.228,-0.53 -3.423,-5.44 -7.304,-10.418 -11.51,-14.972 C 227.765,102.83 212.29,92.52 197.5,82.5 Z m 223.77,12.27 c -29.255,20.228 -58.575,39.152 -84.348,62.78 0.438,0.576 0.848,1.168 1.258,1.76 20.68,-6.75 49.486,-15.333 73.916,-19.41 11.484,-1.916 15.66,-6.552 17.574,-13.228 1.914,-6.676 0.447,-16.71 -5.316,-26.983 -0.924,-1.647 -1.96,-3.29 -3.083,-4.92 z m -223.938,47.87 c -14.95,0.2 -29.732,4.3 -43.957,12.766 l 9.563,16.03 c 21.657,-12.89 42.626,-14.133 65.232,-4.563 0.52,-5.592 1.765,-10.66 3.728,-15.21 0.35,-0.806 0.73,-1.586 1.123,-2.354 -11.87,-4.52 -23.83,-6.827 -35.688,-6.67 z m 75.8,3.934 c -5.578,-0.083 -10.597,0.742 -14.427,2.526 -4.377,2.038 -7.466,4.914 -9.648,9.97 -0.884,2.047 -1.572,4.54 -1.985,7.494 0.456,-0.007 0.91,-0.03 1.365,-0.033 16.053,-0.084 32.587,2.77 49.313,9.19 7.714,2.96 15.062,7.453 22.047,13.184 3.217,-2.445 4.99,-4.72 5.773,-6.535 1.21,-2.798 1.095,-5.184 -0.634,-8.82 -3.46,-7.275 -15.207,-16.955 -28.856,-22.27 -6.824,-2.658 -13.98,-4.224 -20.523,-4.614 -0.818,-0.05 -1.627,-0.08 -2.424,-0.092 z m -24.757,38.457 c -22.982,0.075 -44.722,7.386 -65,19.782 -32.445,19.835 -60.565,53.124 -80.344,90.032 -19.777,36.908 -31.133,77.41 -31.186,110.53 -0.053,33.06 10.26,57.27 32.812,67.782 0.043,0.02 0.082,0.043 0.125,0.063 h 0.032 c 24.872,11.51 65.616,19.337 108.407,20.092 42.79,0.756 87.79,-5.457 121.874,-20.187 21.96,-9.49 34.545,-28.452 40.5,-54.156 5.954,-25.705 4.518,-57.657 -2.375,-89.314 -6.894,-31.657 -19.2,-63.06 -34.095,-87.875 -14.894,-24.814 -32.614,-42.664 -48.063,-48.593 -14.664,-5.627 -28.898,-8.2 -42.687,-8.156 z"
           inkscape:connector-curvature="0"
           style="fill:#000000;fill-opacity:1" />
      </g>
    </g>
    <g
       id="wood"
       transform="matrix(0.01031875,0,0,0.01031875,-171.62514,188.51306)"
       inkscape:label="#g5409">
      <path
         id="path5392"
         d="M 0,0 H 512 V 512 H 0 Z"
         inkscape:connector-curvature="0"
         style="fill:#ffffff;fill-opacity:1" />
      <g
         id="g5396"
         class="">
        <path
           id="path5394"
           d="m 353.86,48.45 c -10.626,-0.16 -20.45,3.456 -29.14,13.253 l -0.193,0.217 -50.586,50.098 0.628,0.703 c 3.395,3.7 3.106,9.463 -0.642,12.804 -3.748,3.342 -9.505,2.97 -12.793,-0.825 l -5.985,-6.712 c -0.784,1.096 -1.627,2.16 -2.544,3.178 -5.116,5.68 -11.746,9.448 -18.688,11.023 l 5.438,20.302 c 2.54,8.98 -8.582,15.417 -15.102,8.738 l -41.2,40.803 c 1.41,-0.082 2.83,-0.135 4.26,-0.135 40.63,0 73.616,33.616 73.616,74.672 0,0.803 -0.036,1.598 -0.06,2.395 l 141.94,-153.74 c 8.252,-10.316 9.687,-20.888 6.985,-31.832 C 407.08,82.4 399.6,71.29 389.653,62.967 c -3.085,-2.583 -6.396,-4.885 -9.835,-6.854 L 258.56,182.725 c -3.418,3.685 -9.193,3.856 -12.824,0.38 -3.63,-3.478 -3.71,-9.255 -0.175,-12.83 L 361.493,49.225 c -1.843,-0.34 -3.68,-0.584 -5.494,-0.694 -0.715,-0.042 -1.428,-0.07 -2.137,-0.08 z M 232.31,85.597 c -4.224,-0.048 -8.876,1.842 -12.583,5.96 -6.327,7.024 -5.918,16.11 -0.913,20.62 5.006,4.508 14.088,3.968 20.415,-3.057 6.325,-7.024 5.917,-16.112 0.91,-20.62 -1.877,-1.69 -4.328,-2.672 -6.992,-2.867 -0.277,-0.02 -0.556,-0.032 -0.837,-0.035 z m -27.95,63.94 c -7.19,-0.12 -13.63,2.222 -19.577,8.925 l -0.19,0.217 -99.734,98.77 c 10.89,0.53 20.967,4.222 29.386,10.167 1.406,-11.834 5.547,-22.84 11.785,-32.332 l 0.44,-0.67 6.39,-8.21 c 1.915,-2.138 3.963,-4.148 6.11,-6.05 l 70.907,-70.224 c -1.372,-0.268 -2.734,-0.453 -4.07,-0.534 -0.486,-0.03 -0.968,-0.05 -1.448,-0.057 z m 193.3,14.415 c -2.226,0.018 -4.423,0.188 -6.588,0.52 L 245.744,321.88 c -2.968,3.93 -6.313,7.544 -9.976,10.806 l -5.715,6.19 c 9.9,2.162 19.137,6.16 27.34,11.628 -0.004,-0.254 -0.02,-0.505 -0.02,-0.76 0,-12.38 4.545,-23.756 12.03,-32.496 l -0.087,-0.086 1.358,-1.344 c 1.008,-1.09 2.06,-2.135 3.16,-3.13 L 381.01,206.545 c 8.52,-9.363 20.055,-13.314 30.816,-12.662 10.908,0.66 21.093,5.423 29.33,12.316 8.238,6.892 14.684,16.035 17.278,26.538 0.788,3.194 1.158,6.54 1.078,9.922 4.62,-9.422 4.9,-19.095 2.242,-28.918 -3.484,-12.87 -12.614,-25.674 -24.47,-34.967 v 0.002 c -11.194,-8.77 -24.658,-14.314 -37.27,-14.79 -0.79,-0.028 -1.573,-0.04 -2.354,-0.034 z m 11.926,47.852 c -5.712,-0.106 -10.696,1.69 -15.463,7.064 l -0.193,0.216 -82.07,81.28 c 22.277,2.517 40.072,20.28 43.12,42.585 l 82.31,-89.153 c 4.454,-5.58 5.124,-10.833 3.665,-16.742 -1.468,-5.945 -5.675,-12.3 -11.35,-17.05 -5.678,-4.75 -12.668,-7.778 -18.867,-8.153 -0.387,-0.024 -0.77,-0.04 -1.152,-0.047 z m -222.274,8.097 c -4.898,0 -9.644,0.647 -14.167,1.85 1.964,-0.262 3.962,-0.41 5.994,-0.41 24.715,0 45.067,19.99 45.067,44.566 0,24.576 -20.355,44.567 -45.068,44.567 -24.718,0 -45.07,-19.992 -45.07,-44.567 0,-2.83 0.282,-5.593 0.797,-8.277 -2.044,5.915 -3.166,12.284 -3.166,18.94 0,31.482 24.873,56.668 55.613,56.668 30.74,0 55.61,-25.185 55.61,-56.668 0,-31.482 -24.87,-56.668 -55.61,-56.668 z m -8.173,19.44 c -15.12,0 -27.07,11.857 -27.07,26.566 0,14.71 11.945,26.567 27.07,26.567 15.117,0 27.067,-11.858 27.067,-26.567 0,-14.71 -11.944,-26.566 -27.068,-26.566 z m -3.388,7.357 c 8.742,0 16.023,7.276 16.023,16.02 0,8.744 -7.285,16.02 -16.023,16.02 -8.742,0 -16.025,-7.275 -16.025,-16.02 0,-8.743 7.287,-16.02 16.025,-16.02 z m -93.61,28.68 c -21.25,0 -38.427,17.364 -38.427,39.2 0,21.835 17.177,39.2 38.426,39.2 21.25,0 38.426,-17.364 38.426,-39.2 0,-3.01 -0.338,-5.933 -0.957,-8.74 -1.208,-2.858 -2.23,-5.813 -3.08,-8.838 -6.297,-12.877 -19.314,-21.623 -34.39,-21.623 z m -0.36,11.016 c 15.59,0 27.085,14.1 27.085,29.823 0,15.724 -11.498,29.82 -27.086,29.82 -15.59,0 -27.087,-14.098 -27.087,-29.82 0,-15.727 11.5,-29.824 27.088,-29.824 z m 372.58,0.325 c -6.907,-0.118 -13.068,2.118 -18.79,8.567 l -0.193,0.22 -96.345,95.415 c 27.285,1.628 49.25,23.576 51.547,50.926 l 96.64,-104.672 c 5.384,-6.735 6.24,-13.283 4.48,-20.42 -0.234,-0.944 -0.527,-1.893 -0.868,-2.844 l -63.383,66.342 c -3.41,3.703 -9.196,3.888 -12.837,0.41 -3.64,-3.48 -3.72,-9.267 -0.175,-12.844 l 65.103,-68.144 c 0.345,-0.37 0.72,-0.71 1.122,-1.018 -0.786,-0.76 -1.604,-1.497 -2.447,-2.203 -6.715,-5.62 -14.988,-9.227 -22.463,-9.68 -0.467,-0.028 -0.93,-0.046 -1.39,-0.054 z m -372.9,14.73 c -7.59,0 -13.74,7.046 -13.74,15.738 0,8.69 6.15,15.736 13.74,15.736 7.59,0 13.743,-7.045 13.743,-15.736 0,-8.69 -6.152,-15.737 -13.742,-15.737 z m 224.952,16.6 c -17.17,0 -31.04,14.004 -31.04,31.694 0,17.69 13.87,31.695 31.04,31.695 17.17,0 31.04,-14.006 31.04,-31.696 0,-17.69 -13.87,-31.693 -31.04,-31.693 z m -2.285,11.155 c 11.398,0 19.28,10.28 19.28,21.092 0,10.814 -7.884,21.09 -19.28,21.09 -11.4,0 -19.282,-10.277 -19.282,-21.09 0,-10.814 7.883,-21.092 19.28,-21.092 z m -163.378,5.13 -14.027,15.192 c -2.17,2.835 -4.59,5.46 -7.235,7.838 l -3.986,4.317 c 9.624,5.793 17.842,13.746 24.006,23.185 6.715,-14.72 17.602,-27.106 31.113,-35.588 -11.134,-2.634 -21.307,-7.826 -29.87,-14.946 z m 72.31,20.704 c -34.83,0 -63.015,28.553 -63.015,64.192 0,35.64 28.186,64.194 63.016,64.194 34.83,0 63.017,-28.554 63.017,-64.194 0,-35.638 -28.188,-64.193 -63.017,-64.193 z M 68.68,370.114 C 42.442,374.65 22.5,397.775 22.5,425.96 c 0,14.03 4.95,26.802 13.146,36.66 -5.09,-7.662 -8.066,-16.868 -8.064,-26.725 v -0.004 c -0.005,-26.31 21.188,-47.994 47.29,-47.994 26.105,0 47.298,21.684 47.292,47.996 0.005,20.913 -13.386,38.89 -31.986,45.393 22.622,-5.065 40.05,-24.075 43.076,-47.908 -0.792,-4.6 -1.207,-9.324 -1.207,-14.145 0,-2.07 0.077,-4.125 0.226,-6.16 -4.7,-20.763 -20.513,-37.028 -40.71,-42.11 -3.065,0.528 -6.21,0.817 -9.422,0.817 -4.64,0 -9.146,-0.586 -13.462,-1.665 z m 140.48,0.643 c 27.187,0 49.2,22.702 49.2,50.203 0,27.503 -22.016,50.204 -49.2,50.204 -27.187,0 -49.2,-22.702 -49.2,-50.203 0,-27.5 22.017,-50.202 49.2,-50.202 z m 0,17.998 c -17.21,0 -31.2,14.195 -31.2,32.205 0,18.012 13.983,32.206 31.2,32.206 17.212,0 31.2,-14.195 31.2,-32.205 0,-18.01 -13.982,-32.204 -31.2,-32.204 z m 81.856,8.148 c 1.256,4.498 2.16,9.143 2.642,13.912 3.67,-4.432 8.01,-8.273 12.852,-11.38 -0.032,0.002 -0.062,0.003 -0.094,0.003 -5.38,0 -10.554,-0.9 -15.4,-2.536 z m -216.14,8.992 c -16.2,0 -29.295,13.238 -29.29,29.995 v 0.005 c -0.005,16.756 13.09,29.994 29.29,29.994 16.197,0 29.295,-13.24 29.29,-29.995 v -0.004 c 0.005,-16.756 -13.093,-29.994 -29.29,-29.994 z m 133.706,0.256 c 8.967,0 14.96,7.945 14.96,15.953 0,8.01 -5.993,15.952 -14.96,15.952 -8.966,0 -14.96,-7.943 -14.96,-15.952 0,-8.008 5.994,-15.953 14.96,-15.953 z m 127.203,2.664 c -20.47,0 -37.013,16.723 -37.013,37.766 0,21.042 16.544,37.766 37.013,37.766 20.47,0 37.012,-16.723 37.012,-37.766 0,-21.042 -16.543,-37.766 -37.012,-37.766 z M 71.833,422.39 c 8.965,0 14.958,7.943 14.958,15.952 0,8.01 -5.992,15.953 -14.958,15.953 -8.966,0 -14.96,-7.944 -14.96,-15.953 0,-8.01 5.994,-15.953 14.96,-15.953 z m 267.923,1.423 c 14.727,0 26.683,12.307 26.683,27.037 0,14.73 -11.958,27.037 -26.684,27.037 -14.728,0 -26.682,-12.308 -26.682,-27.037 0,-14.73 11.955,-27.038 26.682,-27.038 z m 0,18 c -4.802,0 -8.682,3.845 -8.682,9.037 0,5.192 3.877,9.037 8.682,9.037 4.8,0 8.683,-3.846 8.683,-9.037 0,-5.193 -3.88,-9.038 -8.684,-9.038 z"
           inkscape:connector-curvature="0"
           style="fill:#8b572a;fill-opacity:1" />
      </g>
    </g>
    <use
       x="0"
       y="0"
       xlink:href="#g5219"
       id="provides"
       transform="matrix(0.65,0,0,0.65,-16.393635,-34.522572)"
       width="100%"
       height="100%"
       inkscape:label="#use5411" />
    <use
       x="0"
       y="0"
       xlink:href="#g5409"
       id="provides2"
       transform="matrix(0.65,0,0,0.65,-24.16755,-29.239372)"
       width="100%"
       height="100%"
       inkscape:label="#use5413" />
    <use
       x="0"
       y="0"
       xlink:href="#g5371"
       id="provides3"
       transform="matrix(0.65,0,0,0.65,-39.715394,-23.956172)"
       width="100%"
       height="100%"
       inkscape:label="#use5415" />
    <rect
       style="fill:#ffffff;fill-opacity:1;stroke:none;stroke-width:0.32499999;stroke-miterlimit:4;stroke-dasharray:none;stroke-opacity:1"
       id="card"
       width="63.311012"
       height="87.501488"
       x="-137.01637"
       y="60.575893"
       inkscape:label="#rect1237" />
    <path
       style="fill:none;fill-rule:evenodd;stroke:#000000;stroke-width:0.16500001;stroke-linecap:butt;stroke-linejoin:miter;stroke-miterlimit:4;stroke-dasharray:none;stroke-opacity:1"
       d="m -137.01637,104.30775 h 63.122027"
       id="path1239"
       inkscape:connector-curvature="0" />
    <text
       xml:space="preserve"
       style="font-style:normal;font-variant:normal;font-weight:bold;font-stretch:normal;font-size:3.52777767px;line-height:125%;font-family:'Century Schoolbook L';-inkscape-font-specification:'Century Schoolbook L, Bold';font-variant-ligatures:normal;font-variant-caps:normal;font-variant-numeric:normal;font-feature-settings:normal;text-align:end;letter-spacing:0px;word-spacing:0px;writing-mode:lr-tb;text-anchor:end;fill:#000000;fill-opacity:1;stroke:none;stroke-width:0.26458332px;stroke-linecap:butt;stroke-linejoin:miter;stroke-opacity:1"
       x="-76.365433"
       y="145.39717"
       id="age"
       inkscape:label="#text5027"><tspan
         sodipodi:role="line"
         id="tspan5025"
         x="-76.365433"
         y="145.39717"
         style="font-style:normal;font-variant:normal;font-weight:bold;font-stretch:normal;font-size:3.52777767px;font-family:'Century Schoolbook L';-inkscape-font-specification:'Century Schoolbook L, Bold';font-variant-ligatures:normal;font-variant-caps:normal;font-variant-numeric:normal;font-feature-settings:normal;text-align:end;writing-mode:lr-tb;text-anchor:end;stroke-width:0.26458332px">III</tspan></text>
    <flowRoot
       xml:space="preserve"
       id="ability"
       style="font-style:normal;font-variant:normal;font-weight:normal;font-stretch:normal;font-size:10.66666698px;line-height:125%;font-family:sans-serif;-inkscape-font-specification:'sans-serif, Normal';font-variant-ligatures:normal;font-variant-caps:normal;font-variant-numeric:normal;font-feature-settings:normal;text-align:start;letter-spacing:0px;word-spacing:0px;writing-mode:lr-tb;text-anchor:start;opacity:0.98999999;fill:#000000;fill-opacity:1;stroke:none;stroke-width:1px;stroke-linecap:butt;stroke-linejoin:miter;stroke-opacity:1"
       transform="matrix(0.26458333,0,0,0.26458333,-1.122532,17.225823)"
       inkscape:label="#flowRoot5433"><flowRegion
         id="flowRegion5435"
         style="font-style:normal;font-variant:normal;font-weight:normal;font-stretch:normal;font-size:10.66666698px;font-family:sans-serif;-inkscape-font-specification:'sans-serif, Normal';font-variant-ligatures:normal;font-variant-caps:normal;font-variant-numeric:normal;font-feature-settings:normal;text-align:start;writing-mode:lr-tb;text-anchor:start"><rect
           id="rect5437"
           width="184.55486"
           height="116.67262"
           x="-485.07526"
           y="189.79419"
           style="font-style:normal;font-variant:normal;font-weight:normal;font-stretch:normal;font-size:10.66666698px;font-family:sans-serif;-inkscape-font-specification:'sans-serif, Normal';font-variant-ligatures:normal;font-variant-caps:normal;font-variant-numeric:normal;font-feature-settings:normal;text-align:start;writing-mode:lr-tb;text-anchor:start" /></flowRegion><flowPara
         id="flowPara5439">When this is built, the game ends.</flowPara></flowRoot>    <use
       x="0"
       y="0"
       xlink:href="#hides"
       id="provides1"
       transform="translate(47.10742,-100.81967)"
       width="100%"
       height="100%"
       inkscape:label="#use5441" />
    <use
       x="0"
       y="0"
       xlink:href="#wood"
       id="use5443"
       transform="translate(35.14755,-95.536479)"
       width="100%"
       height="100%" />
    <use
       x="0"
       y="0"
       xlink:href="#spears"
       id="use5445"
       transform="translate(11.22779,-90.253279)"
       width="100%"
       height="100%" />
    <flowRoot
       xml:space="preserve"
       id="flowRoot5780"
       style="font-style:normal;font-variant:normal;font-weight:normal;font-stretch:normal;font-size:13.33333302px;line-height:125%;font-family:sans-serif;-inkscape-font-specification:'sans-serif, Normal';font-variant-ligatures:normal;font-variant-caps:normal;font-variant-numeric:normal;font-feature-settings:normal;text-align:start;letter-spacing:0px;word-spacing:0px;writing-mode:lr-tb;text-anchor:start;fill:#000000;fill-opacity:1;stroke:none;stroke-width:1px;stroke-linecap:butt;stroke-linejoin:miter;stroke-opacity:1"
       transform="matrix(0.26458333,0,0,0.26458333,0,17.6)"><flowRegion
         id="flowRegion5782"><rect
           id="rect5784"
           width="0.88388348"
           height="18.384777"
           x="-504.52069"
           y="224.79597" /></flowRegion><flowPara
         id="flowPara5786">z</flowPara></flowRoot>    <flowRoot
       xml:space="preserve"
       id="flowRoot5788"
       style="fill:black;stroke:none;stroke-opacity:1;stroke-width:1px;stroke-linejoin:miter;stroke-linecap:butt;fill-opacity:1;font-family:sans-serif;font-style:normal;font-weight:normal;font-size:13.33333333px;line-height:125%;letter-spacing:0px;word-spacing:0px;-inkscape-font-specification:'sans-serif, Normal';font-stretch:normal;font-variant:normal;text-anchor:start;text-align:start;writing-mode:lr;font-variant-ligatures:normal;font-variant-caps:normal;font-variant-numeric:normal;font-feature-settings:normal"><flowRegion
         id="flowRegion5790"><rect
           id="rect5792"
           width="5.6568542"
           height="24.04163"
           x="-501.33871"
           y="223.38176" /></flowRegion><flowPara
         id="flowPara5794"></flowPara></flowRoot>    <flowRoot
       xml:space="preserve"
       id="flowRoot5796"
       style="fill:black;stroke:none;stroke-opacity:1;stroke-width:1px;stroke-linejoin:miter;stroke-linecap:butt;fill-opacity:1;font-family:sans-serif;font-style:normal;font-weight:normal;font-size:13.33333333px;line-height:125%;letter-spacing:0px;word-spacing:0px;-inkscape-font-specification:'sans-serif, Normal';font-stretch:normal;font-variant:normal;text-anchor:start;text-align:start;writing-mode:lr;font-variant-ligatures:normal;font-variant-caps:normal;font-variant-numeric:normal;font-feature-settings:normal"><flowRegion
         id="flowRegion5798"><rect
           id="rect5800"
           width="2.4748738"
           height="23.864855"
           x="-509.64722"
           y="201.815" /></flowRegion><flowPara
         id="flowPara5802"></flowPara></flowRoot>    <flowRoot
       xml:space="preserve"
       id="flowRoot5808"
       style="font-style:normal;font-variant:normal;font-weight:normal;font-stretch:normal;font-size:13.33333397px;line-height:125%;font-family:sans-serif;-inkscape-font-specification:'sans-serif, Normal';font-variant-ligatures:normal;font-variant-caps:normal;font-variant-numeric:normal;font-feature-settings:normal;text-align:end;letter-spacing:0px;word-spacing:0px;writing-mode:lr-tb;text-anchor:end;fill:#000000;fill-opacity:1;stroke:none;stroke-width:1px;stroke-linecap:butt;stroke-linejoin:miter;stroke-opacity:1"
       transform="matrix(0,-0.26458333,0.26458333,0,-179.86092,-49.843535)"><flowRegion
         id="flowRegion5810"
         style="font-style:normal;font-variant:normal;font-weight:normal;font-stretch:normal;font-size:13.33333397px;font-family:sans-serif;-inkscape-font-specification:'sans-serif, Normal';font-variant-ligatures:normal;font-variant-caps:normal;font-variant-numeric:normal;font-feature-settings:normal;text-align:end;writing-mode:lr-tb;text-anchor:end"><rect
           id="rect5812"
           width="99.42672"
           height="15.521581"
           x="-517.85718"
           y="162.42857"
           style="font-style:normal;font-variant:normal;font-weight:normal;font-stretch:normal;font-size:13.33333397px;font-family:sans-serif;-inkscape-font-specification:'sans-serif, Normal';font-variant-ligatures:normal;font-variant-caps:normal;font-variant-numeric:normal;font-feature-settings:normal;text-align:end;writing-mode:lr-tb;text-anchor:end" /></flowRegion><flowPara
         id="flowPara5814">Building</flowPara></flowRoot>  </g>
  <g
     style=""
     inkscape:groupmode="layer"
     id="cs_layer_0001"
     inkscape:label="Countersheet CivCitizen 1">
    <g
       id="g5613"
       transform="translate(5.000000,5.000000)">
      <g
         transform="translate(137.016374,-60.575892)"
         id="g5611">
        <rect
           style="fill:#ffffff;fill-opacity:1;stroke:none;stroke-width:0.32499999;stroke-miterlimit:4;stroke-dasharray:none;stroke-opacity:1"
           id="rect5585"
           width="63.311012"
           height="87.501488"
           x="-137.01637"
           y="60.575893"
           inkscape:label="#rect1237" />
        <path
           style="fill:none;fill-rule:evenodd;stroke:#000000;stroke-width:0.16500001;stroke-linecap:butt;stroke-linejoin:miter;stroke-miterlimit:4;stroke-dasharray:none;stroke-opacity:1"
           d="m -137.01637,104.30775 h 63.122027"
           id="path5587"
           inkscape:connector-curvature="0" />
        <text
           xml:space="preserve"
           style="font-style:normal;font-variant:normal;font-weight:normal;font-stretch:normal;font-size:3.88055563px;line-height:125%;font-family:sans-serif;-inkscape-font-specification:'sans-serif, Normal';font-variant-ligatures:normal;font-variant-caps:normal;font-variant-numeric:normal;font-feature-settings:normal;text-align:start;letter-spacing:0px;word-spacing:0px;writing-mode:lr-tb;text-anchor:start;fill:#000000;fill-opacity:1;stroke:none;stroke-width:0.26458332px;stroke-linecap:butt;stroke-linejoin:miter;stroke-opacity:1"
           x="-85.85054"
           y="-132.91608"
           id="text5591"
           transform="rotate(-90)"
           inkscape:label="#text1249"><tspan
             sodipodi:role="line"
             id="tspan5589"
             x="-85.85054"
             y="-132.91608"
             style="font-style:normal;font-variant:normal;font-weight:normal;font-stretch:normal;font-size:3.88055563px;font-family:sans-serif;-inkscape-font-specification:'sans-serif, Normal';font-variant-ligatures:normal;font-variant-caps:normal;font-variant-numeric:normal;font-feature-settings:normal;text-align:start;writing-mode:lr-tb;text-anchor:start;stroke-width:0.26458332px">Well</tspan></text>
        <text
           xml:space="preserve"
           style="font-style:normal;font-variant:normal;font-weight:bold;font-stretch:normal;font-size:3.52777767px;line-height:125%;font-family:'Century Schoolbook L';-inkscape-font-specification:'Century Schoolbook L, Bold';font-variant-ligatures:normal;font-variant-caps:normal;font-variant-numeric:normal;font-feature-settings:normal;text-align:end;letter-spacing:0px;word-spacing:0px;writing-mode:lr-tb;text-anchor:end;fill:#000000;fill-opacity:1;stroke:none;stroke-width:0.26458332px;stroke-linecap:butt;stroke-linejoin:miter;stroke-opacity:1"
           x="-76.365433"
           y="145.39717"
           id="text5595"
           inkscape:label="#text5027"><tspan
             sodipodi:role="line"
             id="tspan5593"
             x="-76.365433"
             y="145.39717"
             style="font-style:normal;font-variant:normal;font-weight:bold;font-stretch:normal;font-size:3.52777767px;font-family:'Century Schoolbook L';-inkscape-font-specification:'Century Schoolbook L, Bold';font-variant-ligatures:normal;font-variant-caps:normal;font-variant-numeric:normal;font-feature-settings:normal;text-align:end;writing-mode:lr-tb;text-anchor:end;stroke-width:0.26458332px">I</tspan></text>
        <flowRoot
           xml:space="preserve"
           id="flowRoot5603"
           style="font-style:normal;font-variant:normal;font-weight:normal;font-stretch:normal;font-size:10.66666698px;line-height:125%;font-family:sans-serif;-inkscape-font-specification:'sans-serif, Normal';font-variant-ligatures:normal;font-variant-caps:normal;font-variant-numeric:normal;font-feature-settings:normal;text-align:start;letter-spacing:0px;word-spacing:0px;writing-mode:lr-tb;text-anchor:start;opacity:0.98999999;fill:#000000;fill-opacity:1;stroke:none;stroke-width:1px;stroke-linecap:butt;stroke-linejoin:miter;stroke-opacity:1"
           transform="matrix(0.26458333,0,0,0.26458333,-1.122532,17.225823)"
           inkscape:label="#flowRoot5433"><flowRegion
             id="flowRegion5599"
             style="font-style:normal;font-variant:normal;font-weight:normal;font-stretch:normal;font-size:10.66666698px;font-family:sans-serif;-inkscape-font-specification:'sans-serif, Normal';font-variant-ligatures:normal;font-variant-caps:normal;font-variant-numeric:normal;font-feature-settings:normal;text-align:start;writing-mode:lr-tb;text-anchor:start"><rect
               id="rect5597"
               width="184.55486"
               height="116.67262"
               x="-485.07526"
               y="189.79419"
               style="font-style:normal;font-variant:normal;font-weight:normal;font-stretch:normal;font-size:10.66666698px;font-family:sans-serif;-inkscape-font-specification:'sans-serif, Normal';font-variant-ligatures:normal;font-variant-caps:normal;font-variant-numeric:normal;font-feature-settings:normal;text-align:start;writing-mode:lr-tb;text-anchor:start" /></flowRegion><flowPara
             id="flowPara5601">Drink up</flowPara></flowRoot>        <use
           x="0"
           y="0"
           xlink:href="#food"
           id="use5605"
           transform="translate(-119.598736,0.000000) translate(47.10742,-100.81967)"
           width="100%"
           height="100%"
           inkscape:label="#use5441" />
        <use
           x="0"
           y="0"
           xlink:href="#wood"
           id="use5607"
           transform="translate(35.14755,-95.536479)"
           width="100%"
           height="100%" />
        <use
           x="0"
           y="0"
           xlink:href="#spears"
           id="use5609"
           transform="translate(11.22779,-90.253279)"
           width="100%"
           height="100%" />
      </g>
    </g>
    <g
       id="g5643"
       transform="translate(68.311013,5.000000)">
      <g
         transform="translate(137.016374,-60.575892)"
         id="g5641">
        <rect
           style="fill:#ffffff;fill-opacity:1;stroke:none;stroke-width:0.32499999;stroke-miterlimit:4;stroke-dasharray:none;stroke-opacity:1"
           id="rect5615"
           width="63.311012"
           height="87.501488"
           x="-137.01637"
           y="60.575893"
           inkscape:label="#rect1237" />
        <path
           style="fill:none;fill-rule:evenodd;stroke:#000000;stroke-width:0.16500001;stroke-linecap:butt;stroke-linejoin:miter;stroke-miterlimit:4;stroke-dasharray:none;stroke-opacity:1"
           d="m -137.01637,104.30775 h 63.122027"
           id="path5617"
           inkscape:connector-curvature="0" />
        <text
           xml:space="preserve"
           style="font-style:normal;font-variant:normal;font-weight:normal;font-stretch:normal;font-size:3.88055563px;line-height:125%;font-family:sans-serif;-inkscape-font-specification:'sans-serif, Normal';font-variant-ligatures:normal;font-variant-caps:normal;font-variant-numeric:normal;font-feature-settings:normal;text-align:start;letter-spacing:0px;word-spacing:0px;writing-mode:lr-tb;text-anchor:start;fill:#000000;fill-opacity:1;stroke:none;stroke-width:0.26458332px;stroke-linecap:butt;stroke-linejoin:miter;stroke-opacity:1"
           x="-85.85054"
           y="-132.91608"
           id="text5621"
           transform="rotate(-90)"
           inkscape:label="#text1249"><tspan
             sodipodi:role="line"
             id="tspan5619"
             x="-85.85054"
             y="-132.91608"
             style="font-style:normal;font-variant:normal;font-weight:normal;font-stretch:normal;font-size:3.88055563px;font-family:sans-serif;-inkscape-font-specification:'sans-serif, Normal';font-variant-ligatures:normal;font-variant-caps:normal;font-variant-numeric:normal;font-feature-settings:normal;text-align:start;writing-mode:lr-tb;text-anchor:start;stroke-width:0.26458332px">Aqueduct</tspan></text>
        <text
           xml:space="preserve"
           style="font-style:normal;font-variant:normal;font-weight:bold;font-stretch:normal;font-size:3.52777767px;line-height:125%;font-family:'Century Schoolbook L';-inkscape-font-specification:'Century Schoolbook L, Bold';font-variant-ligatures:normal;font-variant-caps:normal;font-variant-numeric:normal;font-feature-settings:normal;text-align:end;letter-spacing:0px;word-spacing:0px;writing-mode:lr-tb;text-anchor:end;fill:#000000;fill-opacity:1;stroke:none;stroke-width:0.26458332px;stroke-linecap:butt;stroke-linejoin:miter;stroke-opacity:1"
           x="-76.365433"
           y="145.39717"
           id="text5625"
           inkscape:label="#text5027"><tspan
             sodipodi:role="line"
             id="tspan5623"
             x="-76.365433"
             y="145.39717"
             style="font-style:normal;font-variant:normal;font-weight:bold;font-stretch:normal;font-size:3.52777767px;font-family:'Century Schoolbook L';-inkscape-font-specification:'Century Schoolbook L, Bold';font-variant-ligatures:normal;font-variant-caps:normal;font-variant-numeric:normal;font-feature-settings:normal;text-align:end;writing-mode:lr-tb;text-anchor:end;stroke-width:0.26458332px">II</tspan></text>
        <flowRoot
           xml:space="preserve"
           id="flowRoot5633"
           style="font-style:normal;font-variant:normal;font-weight:normal;font-stretch:normal;font-size:10.66666698px;line-height:125%;font-family:sans-serif;-inkscape-font-specification:'sans-serif, Normal';font-variant-ligatures:normal;font-variant-caps:normal;font-variant-numeric:normal;font-feature-settings:normal;text-align:start;letter-spacing:0px;word-spacing:0px;writing-mode:lr-tb;text-anchor:start;opacity:0.98999999;fill:#000000;fill-opacity:1;stroke:none;stroke-width:1px;stroke-linecap:butt;stroke-linejoin:miter;stroke-opacity:1"
           transform="matrix(0.26458333,0,0,0.26458333,-1.122532,17.225823)"
           inkscape:label="#flowRoot5433"><flowRegion
             id="flowRegion5629"
             style="font-style:normal;font-variant:normal;font-weight:normal;font-stretch:normal;font-size:10.66666698px;font-family:sans-serif;-inkscape-font-specification:'sans-serif, Normal';font-variant-ligatures:normal;font-variant-caps:normal;font-variant-numeric:normal;font-feature-settings:normal;text-align:start;writing-mode:lr-tb;text-anchor:start"><rect
               id="rect5627"
               width="184.55486"
               height="116.67262"
               x="-485.07526"
               y="189.79419"
               style="font-style:normal;font-variant:normal;font-weight:normal;font-stretch:normal;font-size:10.66666698px;font-family:sans-serif;-inkscape-font-specification:'sans-serif, Normal';font-variant-ligatures:normal;font-variant-caps:normal;font-variant-numeric:normal;font-feature-settings:normal;text-align:start;writing-mode:lr-tb;text-anchor:start" /></flowRegion><flowPara
             id="flowPara5631">Nourishes the city with fresh clean water.  Better than well.</flowPara></flowRoot>        <use
           x="0"
           y="0"
           xlink:href="#food"
           id="use5635"
           transform="translate(-119.598736,0.000000) translate(47.10742,-100.81967)"
           width="100%"
           height="100%"
           inkscape:label="#use5441" />
        <use
           x="0"
           y="0"
           xlink:href="#wood"
           id="use5637"
           transform="translate(35.14755,-95.536479)"
           width="100%"
           height="100%" />
        <use
           x="0"
           y="0"
           xlink:href="#spears"
           id="use5639"
           transform="translate(11.22779,-90.253279)"
           width="100%"
           height="100%" />
      </g>
    </g>
    <g
       id="g5673"
       transform="translate(131.622027,5.000000)">
      <g
         transform="translate(137.016374,-60.575892)"
         id="g5671">
        <rect
           style="fill:#ffffff;fill-opacity:1;stroke:none;stroke-width:0.32499999;stroke-miterlimit:4;stroke-dasharray:none;stroke-opacity:1"
           id="rect5645"
           width="63.311012"
           height="87.501488"
           x="-137.01637"
           y="60.575893"
           inkscape:label="#rect1237" />
        <path
           style="fill:none;fill-rule:evenodd;stroke:#000000;stroke-width:0.16500001;stroke-linecap:butt;stroke-linejoin:miter;stroke-miterlimit:4;stroke-dasharray:none;stroke-opacity:1"
           d="m -137.01637,104.30775 h 63.122027"
           id="path5647"
           inkscape:connector-curvature="0" />
        <text
           xml:space="preserve"
           style="font-style:normal;font-variant:normal;font-weight:normal;font-stretch:normal;font-size:3.88055563px;line-height:125%;font-family:sans-serif;-inkscape-font-specification:'sans-serif, Normal';font-variant-ligatures:normal;font-variant-caps:normal;font-variant-numeric:normal;font-feature-settings:normal;text-align:start;letter-spacing:0px;word-spacing:0px;writing-mode:lr-tb;text-anchor:start;fill:#000000;fill-opacity:1;stroke:none;stroke-width:0.26458332px;stroke-linecap:butt;stroke-linejoin:miter;stroke-opacity:1"
           x="-85.85054"
           y="-132.91608"
           id="text5651"
           transform="rotate(-90)"
           inkscape:label="#text1249"><tspan
             sodipodi:role="line"
             id="tspan5649"
             x="-85.85054"
             y="-132.91608"
             style="font-style:normal;font-variant:normal;font-weight:normal;font-stretch:normal;font-size:3.88055563px;font-family:sans-serif;-inkscape-font-specification:'sans-serif, Normal';font-variant-ligatures:normal;font-variant-caps:normal;font-variant-numeric:normal;font-feature-settings:normal;text-align:start;writing-mode:lr-tb;text-anchor:start;stroke-width:0.26458332px">Farm	</tspan></text>
        <text
           xml:space="preserve"
           style="font-style:normal;font-variant:normal;font-weight:bold;font-stretch:normal;font-size:3.52777767px;line-height:125%;font-family:'Century Schoolbook L';-inkscape-font-specification:'Century Schoolbook L, Bold';font-variant-ligatures:normal;font-variant-caps:normal;font-variant-numeric:normal;font-feature-settings:normal;text-align:end;letter-spacing:0px;word-spacing:0px;writing-mode:lr-tb;text-anchor:end;fill:#000000;fill-opacity:1;stroke:none;stroke-width:0.26458332px;stroke-linecap:butt;stroke-linejoin:miter;stroke-opacity:1"
           x="-76.365433"
           y="145.39717"
           id="text5655"
           inkscape:label="#text5027"><tspan
             sodipodi:role="line"
             id="tspan5653"
             x="-76.365433"
             y="145.39717"
             style="font-style:normal;font-variant:normal;font-weight:bold;font-stretch:normal;font-size:3.52777767px;font-family:'Century Schoolbook L';-inkscape-font-specification:'Century Schoolbook L, Bold';font-variant-ligatures:normal;font-variant-caps:normal;font-variant-numeric:normal;font-feature-settings:normal;text-align:end;writing-mode:lr-tb;text-anchor:end;stroke-width:0.26458332px">I</tspan></text>
        <flowRoot
           xml:space="preserve"
           id="flowRoot5663"
           style="font-style:normal;font-variant:normal;font-weight:normal;font-stretch:normal;font-size:10.66666698px;line-height:125%;font-family:sans-serif;-inkscape-font-specification:'sans-serif, Normal';font-variant-ligatures:normal;font-variant-caps:normal;font-variant-numeric:normal;font-feature-settings:normal;text-align:start;letter-spacing:0px;word-spacing:0px;writing-mode:lr-tb;text-anchor:start;opacity:0.98999999;fill:#000000;fill-opacity:1;stroke:none;stroke-width:1px;stroke-linecap:butt;stroke-linejoin:miter;stroke-opacity:1"
           transform="matrix(0.26458333,0,0,0.26458333,-1.122532,17.225823)"
           inkscape:label="#flowRoot5433"><flowRegion
             id="flowRegion5659"
             style="font-style:normal;font-variant:normal;font-weight:normal;font-stretch:normal;font-size:10.66666698px;font-family:sans-serif;-inkscape-font-specification:'sans-serif, Normal';font-variant-ligatures:normal;font-variant-caps:normal;font-variant-numeric:normal;font-feature-settings:normal;text-align:start;writing-mode:lr-tb;text-anchor:start"><rect
               id="rect5657"
               width="184.55486"
               height="116.67262"
               x="-485.07526"
               y="189.79419"
               style="font-style:normal;font-variant:normal;font-weight:normal;font-stretch:normal;font-size:10.66666698px;font-family:sans-serif;-inkscape-font-specification:'sans-serif, Normal';font-variant-ligatures:normal;font-variant-caps:normal;font-variant-numeric:normal;font-feature-settings:normal;text-align:start;writing-mode:lr-tb;text-anchor:start" /></flowRegion><flowPara
             id="flowPara5661">Provides food which can be nice sometimes</flowPara></flowRoot>        <use
           x="0"
           y="0"
           xlink:href="#food"
           id="use5665"
           transform="translate(-119.598736,0.000000) translate(47.10742,-100.81967)"
           width="100%"
           height="100%"
           inkscape:label="#use5441" />
        <use
           x="0"
           y="0"
           xlink:href="#wood"
           id="use5667"
           transform="translate(35.14755,-95.536479)"
           width="100%"
           height="100%" />
        <use
           x="0"
           y="0"
           xlink:href="#spears"
           id="use5669"
           transform="translate(11.22779,-90.253279)"
           width="100%"
           height="100%" />
      </g>
    </g>
    <line
       id="line5675"
       stroke-width="0.141109699997"
       style="stroke:#aaa"
       y2="0.0"
       x2="5.0"
       y1="5.0"
       x1="5.0" />
    <line
       id="line5677"
       stroke-width="0.141109699997"
       style="stroke:#aaa"
       y2="0.0"
       x2="194.93304025"
       y1="5.0"
       x1="194.93304025" />
    <line
       id="line5679"
       stroke-width="0.141109699997"
       style="stroke:#aaa"
       y2="0.0"
       x2="131.622026833"
       y1="5.0"
       x1="131.622026833" />
    <line
       id="line5681"
       stroke-width="0.141109699997"
       style="stroke:#aaa"
       y2="0.0"
       x2="68.3110134167"
       y1="5.0"
       x1="68.3110134167" />
    <line
       id="line5683"
       stroke-width="0.141109699997"
       style="stroke:#aaa"
       y2="5.0"
       x2="0.0"
       y1="5.0"
       x1="5.0" />
    <line
       id="line5685"
       stroke-width="0.141109699997"
       style="stroke:#aaa"
       y2="92.5014865833"
       x2="0.0"
       y1="92.5014865833"
       x1="5.0" />
    <line
       id="line5687"
       stroke-width="0.141109699997"
       style="stroke:#aaa"
       y2="97.5014865833"
       x2="5.0"
       y1="92.5014865833"
       x1="5.0" />
    <line
       id="line5689"
       stroke-width="0.141109699997"
       style="stroke:#aaa"
       y2="97.5014865833"
       x2="194.93304025"
       y1="92.5014865833"
       x1="194.93304025" />
    <line
       id="line5691"
       stroke-width="0.141109699997"
       style="stroke:#aaa"
       y2="97.5014865833"
       x2="131.622026833"
       y1="92.5014865833"
       x1="131.622026833" />
    <line
       id="line5693"
       stroke-width="0.141109699997"
       style="stroke:#aaa"
       y2="97.5014865833"
       x2="68.3110134167"
       y1="92.5014865833"
       x1="68.3110134167" />
    <line
       id="line5695"
       stroke-width="0.141109699997"
       style="stroke:#aaa"
       y2="5.0"
       x2="199.93304025"
       y1="5.0"
       x1="194.93304025" />
    <line
       id="line5697"
       stroke-width="0.141109699997"
       style="stroke:#aaa"
       y2="92.5014865833"
       x2="199.93304025"
       y1="92.5014865833"
       x1="194.93304025" />
  </g>
</svg>
